<svg width="141" height="141" viewBox="0 0 141 141" fill="none" xmlns="http://www.w3.org/2000/svg">
<path d="M117.806 68.15C117.596 67.3845 117.493 66.5937 117.5 65.8C117.507 66.5937 117.404 67.3845 117.195 68.15C115.882 73.1728 110.746 76.1802 105.723 74.8675C102.434 74.0077 99.8651 71.4391 99.0056 68.15C98.7958 67.3845 98.693 66.5937 98.7001 65.8C98.7071 66.5937 98.6043 67.3845 98.3946 68.15C97.0818 73.1728 91.9459 76.1802 86.923 74.8675C83.6339 74.0077 81.0651 71.4391 80.2056 68.15C79.9958 67.3845 79.893 66.5937 79.9001 65.8C79.9071 66.5937 79.8043 67.3845 79.5946 68.15C78.2818 73.1728 73.1459 76.1802 68.123 74.8675C64.8339 74.0077 62.2651 71.4391 61.4055 68.15C61.1958 67.3845 61.093 66.5937 61.1001 65.8C61.1071 66.5937 61.0043 67.3845 60.7946 68.15C59.4818 73.1728 54.3459 76.1802 49.323 74.8675C46.0339 74.0077 43.4651 71.4391 42.6055 68.15C42.3958 67.3845 42.293 66.5937 42.3001 65.8C42.3071 66.5937 42.2043 67.3845 41.9946 68.15C40.6818 73.1728 35.5459 76.1802 30.523 74.8675C27.2339 74.0079 24.6654 71.4391 23.8055 68.15C23.5958 67.3845 23.493 66.5937 23.5 65.8C23.5071 66.5937 23.4043 67.3845 23.1945 68.15C22.568 70.5902 20.9835 72.6743 18.8 73.931V131.6H122.2V73.931C120.017 72.6743 118.432 70.5902 117.806 68.15Z" fill="#AEDEE9"/>
<path d="M138.65 131.6H122.2H108.1H84.6001H18.8001H2.3501V141H138.65V131.6Z" fill="#5CBCD2"/>
<path d="M61.1004 44.65V65.8C61.0934 66.5937 61.1962 67.3845 61.4059 68.15C62.7187 73.1728 67.8546 76.1803 72.8775 74.8675C76.1666 74.0077 78.7354 71.4391 79.5949 68.15C79.8047 67.3845 79.9075 66.5937 79.9004 65.8V44.65H61.1004Z" fill="#5CBCD2"/>
<path d="M44.6506 44.65L42.3006 65.8C42.2936 66.5937 42.3964 67.3845 42.6061 68.15C43.9189 73.1728 49.0548 76.1803 54.0777 74.8675C57.3668 74.0077 59.9356 71.4391 60.7951 68.15C61.0049 67.3845 61.1077 66.5937 61.1006 65.8V44.65H44.6506Z" fill="#FFA67C"/>
<path d="M25.8506 44.65L23.5006 65.8C23.4935 66.5937 23.5963 67.3845 23.8061 68.15C25.1189 73.1728 30.2548 76.1803 35.2776 74.8675C38.5667 74.0077 41.1356 71.4391 41.9951 68.15C42.2048 67.3845 42.3076 66.5937 42.3006 65.8L44.6506 44.65H25.8506Z" fill="#5CBCD2"/>
<path d="M23.1945 68.15C23.4042 67.3845 23.507 66.5937 23.5 65.8L25.85 44.65H11.28C10.1787 44.6503 9.22546 45.415 8.98635 46.4901L4.69995 65.8C4.71464 70.9915 8.93524 75.188 14.1267 75.1733C18.3928 75.161 22.1158 72.2775 23.1945 68.15Z" fill="#FFA67C"/>
<path d="M79.9005 44.65V65.8C79.8934 66.5937 79.9963 67.3845 80.206 68.15C81.5188 73.1728 86.6547 76.1803 91.6775 74.8675C94.9666 74.0077 97.5355 71.4391 98.395 68.15C98.6047 67.3845 98.7075 66.5937 98.7005 65.8L96.3505 44.65H79.9005Z" fill="#FFA67C"/>
<path d="M96.3501 44.65L98.7001 65.8C98.693 66.5937 98.7959 67.3845 99.0056 68.15C100.318 73.1728 105.454 76.1803 110.477 74.8675C113.766 74.0077 116.335 71.4391 117.195 68.15C117.404 67.3845 117.507 66.5937 117.5 65.8L115.15 44.65H96.3501Z" fill="#5CBCD2"/>
<path d="M117.5 65.8C117.493 66.5937 117.596 67.3845 117.805 68.15C119.118 73.1729 124.254 76.1803 129.277 74.8678C133.404 73.7891 136.288 70.0662 136.3 65.8L132.009 46.4901C131.77 45.4167 130.819 44.6524 129.72 44.65H115.15L117.5 65.8Z" fill="#FFA67C"/>
<path d="M84.6001 91.65V131.6H108.1V91.65C108.1 90.3522 107.048 89.3 105.75 89.3H86.9501C85.6523 89.3 84.6001 90.3522 84.6001 91.65Z" fill="#FFF9F6"/>
<path d="M32.8999 91.65H70.4999V115.15H32.8999V91.65Z" fill="#FFF9F6"/>
<path d="M98.7002 23.5H103.4V37.6H98.7002V23.5Z" fill="#5CBCD2"/>
<path d="M37.6001 23.5H42.3001V37.6H37.6001V23.5Z" fill="#5CBCD2"/>
<path d="M108.1 21.15V2.35C108.1 1.05221 107.048 0 105.75 0H35.2499C33.9521 0 32.8999 1.05221 32.8999 2.35V21.15C32.8999 22.4478 33.9521 23.5 35.2499 23.5H105.75C107.048 23.5 108.1 22.4478 108.1 21.15Z" fill="#AEDEE9"/>
<path d="M44.6501 44.65H122.2V32.9C122.2 31.6022 121.148 30.55 119.85 30.55H21.15C19.8523 30.55 18.8 31.6022 18.8 32.9V44.65H44.6501Z" fill="#AEDEE9"/>
</svg>
