<svg id="_Layer_" data-name="&lt;Layer&gt;" xmlns="http://www.w3.org/2000/svg" viewBox="0 0 2363.47 1478.28"><defs><style>.cls-1{fill:#a8d29f;}.cls-2{fill:#afcdfb;}.cls-3{fill:#599dad;}.cls-4{fill:#6bb7bf;}.cls-5{fill:#86d1cd;}.cls-6{fill:#efcbab;}.cls-7{fill:#ffebdc;}.cls-8{fill:#efcdaf;}.cls-9{fill:#9abcef;}.cls-10{fill:#e9f3fe;}.cls-11{fill:#d8e8fd;}.cls-12{fill:#bbd5fc;}.cls-13{fill:#d2e4fd;}.cls-14{fill:#c65447;}.cls-15{fill:#ffb27d;}.cls-16{fill:#e58638;}.cls-17{fill:#233862;}.cls-18{fill:#2b478b;}.cls-19{fill:#ee9849;}.cls-20{fill:#ed985f;}.cls-21{fill:#2c3a64;}.cls-22{fill:#1c468a;}</style></defs><path class="cls-1" d="M488.09,1662.58s7.89-51.7,108.57-65.61S791,1471.53,957,1487.72s303.81,117.75,492.81,86.63,307.35,8.54,349.74,39.83,217.84-7.34,230.8,50Z" transform="translate(-217.79 -185.88)"/><path class="cls-2" d="M902,430.58S788.33,425,848.61,771.35c0,0,40.55,117.56-10.64,193.33h753.6V430.58Z" transform="translate(-217.79 -185.88)"/><path class="cls-3" d="M979.36,1331s-52.65-61.42-3.25-100.44c0,0,36.09-21.85,65.51-20.07,0,0-41.69,69.91-28.2,76.87s40.84-81.26,40.84-81.26,82.11-8,108.53,4.74c0,0-70.2,57.45-55.41,60.87s90.61-53,90.61-53,76.42,13,72.35,59.63-30.41,61-42,59.78-79.28-27.08-80.75-17.6,39.28,40.48,67.82,41.93c0,0-53.88,59.42-89.7,42.27s-38.86-44.33-61.19-54.53-41.38-10.17-32.16.23,49.62,20.5,62.38,43.08,24.22,37.81-12.83,32.24S984.65,1393.08,982,1362Z" transform="translate(-217.79 -185.88)"/><path class="cls-3" d="M1232.79,1279.63s-207.59-8-253.43,51.37c0,0-10.14,30.36-41.34,58l-4.86,13.25s36-37.93,48.84-40.22C982,1362,961.87,1288.49,1232.79,1279.63Z" transform="translate(-217.79 -185.88)"/><path class="cls-3" d="M938,1389s-44.55,33-47.65,91.83l8.09.72s14.23-60.88,39.95-84.68S938,1389,938,1389Z" transform="translate(-217.79 -185.88)"/><path class="cls-4" d="M795.28,1253.75S879,1206.85,840,1143.2c0,0-31.27-39.08-64.77-49.13,0,0,17.87,94.92,0,97.15S762.9,1084,762.9,1084s-88.22-42.43-122.83-39.08c0,0,54.71,92.68,36.85,90.45s-79.29-96-79.29-96-90.44-16.75-105,36.85S501.6,1156.6,515,1160s99.38,2.24,97.15,13.4-60.3,29-92.68,19c0,0,35.73,88.21,82.63,83.74s61.42-33.49,90.45-35.73,50.25,5.59,35.73,13.4-63.65,2.56-87.1,22.5-42.43,32.22,1.12,41.15,121.72,3.35,137.35-30.15Z" transform="translate(-217.79 -185.88)"/><path class="cls-4" d="M534,1093s234.49,75.94,261.29,160.8c0,0-1.11,38,22.34,81.52V1352s-24.57-57-38-64.77C779.65,1287.25,832.13,1213.55,534,1093Z" transform="translate(-217.79 -185.88)"/><path class="cls-4" d="M817.62,1335.27s36.16,54.91,15.54,121.76l-9.3-2.5s9-73.63-9.89-110.66S817.62,1335.27,817.62,1335.27Z" transform="translate(-217.79 -185.88)"/><path class="cls-5" d="M928.52,1189.07s-110.39-61.82-58.88-145.72c0,0,41.22-51.52,85.38-64.77,0,0-23.55,125.12,0,128.06s16.19-141.31,16.19-141.31,116.29-55.93,161.92-51.52c0,0-72.13,122.18-48.58,119.23s104.51-126.59,104.51-126.59,119.23-22.08,138.37,48.58-11.78,106-29.44,110.4-131,2.94-128.06,17.66,79.48,38.27,122.17,25c0,0-47.1,116.29-108.93,110.4s-81-44.16-119.23-47.1-66.23,7.36-47.1,17.66,83.9,3.38,114.81,29.66,55.94,42.47-1.47,54.24-160.44,4.42-181.05-39.74Z" transform="translate(-217.79 -185.88)"/><path class="cls-4" d="M1273,977.11s-309.11,100.09-344.44,212c0,0,1.47,50-29.44,107.45v22.08s32.39-75.07,50-85.37C949.13,1233.23,880,1136.08,1273,977.11Z" transform="translate(-217.79 -185.88)"/><path class="cls-4" d="M899.08,1296.52s-47.67,72.39-20.49,160.51l12.26-3.29s-11.9-97.06,13-145.87S899.08,1296.52,899.08,1296.52Z" transform="translate(-217.79 -185.88)"/><path class="cls-6" d="M924.8,1648.12c119.44,0,216.25-96.82,216.25-216.25H708.55C708.55,1551.3,805.37,1648.12,924.8,1648.12Z" transform="translate(-217.79 -185.88)"/><path class="cls-7" d="M978,1646.47a216.6,216.6,0,0,1-26.87,1.65c-119.43,0-216.24-96.82-216.24-216.25h53.72C788.63,1542.21,871.26,1633.24,978,1646.47Z" transform="translate(-217.79 -185.88)"/><path class="cls-6" d="M1144,1659.13H705.57a26.67,26.67,0,0,1,26.68-26.68h385.11a26.67,26.67,0,0,1,26.68,26.68Z" transform="translate(-217.79 -185.88)"/><rect class="cls-8" x="483.65" y="1245.98" width="444.53" height="6.63"/><path class="cls-3" d="M1707.32,609.63s-37.88-71.48,18.88-98.7c0,0,40-13.39,68.32-5.2,0,0-56,59.06-44.39,68.8s57.68-70.31,57.68-70.31,81.86,10.26,104.85,28.45c0,0-81.1,40.64-67.43,47.22s100-31.79,100-31.79,71.71,29.47,57.5,74.06-43.06,52.85-54.09,49.1-71.4-43.82-74.92-34.89,29.44,48.11,57,55.79c0,0-65.61,46.15-96.78,21.55s-28.19-51.78-47.73-66.63-38.14-19-31.43-6.84,43.91,30.9,51.41,55.73,15.33,42.21-19.6,28.64-87.73-53.24-83.49-84.11Z" transform="translate(-217.79 -185.88)"/><path class="cls-3" d="M1965.84,615.14s-200.76-53.36-258.52-5.51c0,0-16.55,27.4-53.06,47.53L1646.61,669s43.42-29.11,56.48-28.52C1703.09,640.5,1699.59,564.33,1965.84,615.14Z" transform="translate(-217.79 -185.88)"/><path class="cls-3" d="M1654.26,657.16s-50.7,22.37-66.64,79.13l7.73,2.48s27.24-56.27,57.56-73.85S1654.26,657.16,1654.26,657.16Z" transform="translate(-217.79 -185.88)"/><path class="cls-5" d="M1457.89,480.7s-112.19-58.5-63.19-143.9c0,0,39.66-52.73,83.41-67.28,0,0-19.82,125.76,3.81,128s12-141.73,12-141.73,114.57-59.37,160.31-56.31c0,0-68.46,124.26-45,120.62s100.7-129.64,100.7-129.64,118.52-25.62,139.75,44.43-8.62,106.29-26.14,111.23S1692.65,353,1696,367.58s80.59,35.89,122.86,21.38c0,0-43.62,117.63-105.59,113.59s-82.23-41.73-120.58-43.53-66,9.33-46.55,19.06,84,.87,115.64,26.22,57.18,40.79.15,54.27-160.25,9.19-182.16-34.34Z" transform="translate(-217.79 -185.88)"/><path class="cls-4" d="M1795.87,258.58s-306,109.25-338,222.12c0,0,3,50-26.23,108.29l.66,22.07s30.13-76,47.48-86.83C1479.8,524.23,1407.76,429.18,1795.87,258.58Z" transform="translate(-217.79 -185.88)"/><path class="cls-4" d="M1431.66,589s-45.49,73.77-15.7,161l12.16-3.65s-14.79-96.66,8.68-146.2S1431.66,589,1431.66,589Z" transform="translate(-217.79 -185.88)"/><rect class="cls-9" x="731.95" y="449.69" width="786.78" height="1026.07"/><rect class="cls-10" x="757.67" y="449.69" width="773.56" height="1026.07"/><path class="cls-1" d="M2294.47,1659.13H2138.59c-8.35-7.08,5.78-23.17,20.55-24.25,6.41-.49,14.53.85,23.79,2.81,2.15-28.49,14.4-156.57,60.56-151.42,51.91,5.76,0,56.4-14.67,86.38-10.87,22.21-22.34,54.06-27.58,69.09,4.22.91,8.58,1.81,13,2.63,6.88-21.13,32.48-92.19,65-88,38.23,4.85,22.86,33.34-4.23,50.25-19.88,12.44-44.28,30.11-55.88,38.65a165.27,165.27,0,0,0,30.48,2.45C2276.39,1647,2289.42,1654.9,2294.47,1659.13Z" transform="translate(-217.79 -185.88)"/><path class="cls-10" d="M1749,635.56H975.46c4.28-58.49-2.16-101-12.5-131.52-19.83-58.73-54-73.47-54-73.47h729.54c62.26,0,110.54,37.51,123.68,87.3.49,1.88.95,3.74,1.35,5.6C1776,580.45,1749.54,634.52,1749,635.56Z" transform="translate(-217.79 -185.88)"/><path class="cls-11" d="M1749,635.56H975.46c4.28-58.49-2.16-101-12.5-131.52,79.06,14.48,274.85,45.32,484.43,40.13,135.58-3.37,242.72-12.44,316.12-20.7C1776,580.45,1749.54,634.52,1749,635.56Z" transform="translate(-217.79 -185.88)"/><rect class="cls-12" x="909" y="667.05" width="425.54" height="19.24" rx="7.66"/><rect class="cls-12" x="909" y="699.42" width="265.16" height="19.24" rx="6.04"/><path class="cls-12" d="M1087.28,901.43v-39.3h-5.18q-4.72,0-4.72-3.93,0-2.84,3.7-4a27.27,27.27,0,0,1,6-.94q4.13-.32,6.64-.32c1.62,0,2.65.33,3.07,1s.63,2.32.63,5v42.52h5.34c3.46,0,5.19,1.5,5.19,4.48q0,4.73-5.19,4.72h-21.54a5.94,5.94,0,0,1-3.81-1.22,4.12,4.12,0,0,1-1.53-3.42q0-4.56,5.26-4.56Z" transform="translate(-217.79 -185.88)"/><rect class="cls-13" x="909" y="869.69" width="425.54" height="19.24" rx="7.66"/><rect class="cls-13" x="909" y="902.07" width="265.16" height="19.24" rx="6.04"/><path class="cls-13" d="M1108.77,1103.27q0,3.93-5.49,3.93H1080.5q-4.93,0-4.94-4a5,5,0,0,1,1.32-2.92q1.95-2.22,5.7-6.67,5.7-7.15,9.52-12.37,1.32-1.72,3.75-5.28a12.76,12.76,0,0,0,2-6,6.15,6.15,0,0,0-1.73-4.48,6,6,0,0,0-4.45-1.77,6.84,6.84,0,0,0-4.59,1.66,8,8,0,0,0-2.08,4.17,47.23,47.23,0,0,1-1.25,4.59,3.52,3.52,0,0,1-3.4,2.22,3.91,3.91,0,0,1-3.27-1.53,5.22,5.22,0,0,1-1.11-3.47,16.74,16.74,0,0,1,.76-4.93,14.84,14.84,0,0,1,5.91-8.2,17.1,17.1,0,0,1,9.79-2.71,15.16,15.16,0,0,1,10.56,3.83,13.37,13.37,0,0,1,4.38,10.29,18,18,0,0,1-3.13,9.61q-1.73,2.71-7.15,9.6-2.77,3.55-8.75,10.3h15Q1108.77,1099.21,1108.77,1103.27Z" transform="translate(-217.79 -185.88)"/><rect class="cls-13" x="909" y="1038.74" width="425.54" height="19.24" rx="7.66"/><rect class="cls-13" x="909" y="1071.11" width="265.16" height="19.24" rx="6.04"/><path class="cls-13" d="M1108.77,1260.12a14.91,14.91,0,0,1-5.18,11.86,18.27,18.27,0,0,1-12.43,4.26,17.36,17.36,0,0,1-9.94-2.77q-6.54-4.4-6.54-10.58a4.43,4.43,0,0,1,1.14-3.05,3.73,3.73,0,0,1,2.91-1.28c1.23,0,2.39.83,3.48,2.48a50.87,50.87,0,0,0,3.06,4.55,7.9,7.9,0,0,0,6,2.48c3.32,0,5.68-1.23,7.1-3.69a9.85,9.85,0,0,0,1-4.69q0-6.95-8.17-7.73-4.62-.43-4.62-3.91a3.72,3.72,0,0,1,2.68-3.62c3.34-1.23,5-1.87,5.08-1.92q2.69-1.77,2.68-6.18a5.57,5.57,0,0,0-1.55-4.15,5.71,5.71,0,0,0-4.18-1.53,7.61,7.61,0,0,0-5.09,1.56,10.14,10.14,0,0,0-2.62,4.62,3.23,3.23,0,0,1-3.26,2.48,3.31,3.31,0,0,1-2.79-1.49,5.38,5.38,0,0,1-1.1-3.26,9.06,9.06,0,0,1,1.21-4.41,13.63,13.63,0,0,1,6.1-5.75,17.88,17.88,0,0,1,8.24-1.91,14.36,14.36,0,0,1,10,3.65,12.42,12.42,0,0,1,4,9.62,13.2,13.2,0,0,1-6,11.37Q1108.77,1250.61,1108.77,1260.12Z" transform="translate(-217.79 -185.88)"/><path class="cls-12" d="M1023.55,495.49h255.55a8,8,0,0,1,8,8v6.45a8,8,0,0,1-8,8H1023.55a8,8,0,0,1-8-8v-6.45A8,8,0,0,1,1023.55,495.49Z"/><path class="cls-12" d="M956.91,530h388.83a9.75,9.75,0,0,1,9.75,9.75v2.84a9.75,9.75,0,0,1-9.75,9.75H956.91a9.76,9.76,0,0,1-9.76-9.76v-2.84a9.75,9.75,0,0,1,9.75-9.75Z"/><path class="cls-14" d="M1339.15,975.93c-84.27,0-164.24-10.57-223.85-25.69-60.23-15.27-92.67-40.22-92.67-62.36,0-20.06,26.43-38.52,76.46-53.36h0c-47.94,14.23-73.58,35.12-73.58,53.36,0,20.24,33.23,40.28,91.17,55,59.41,15.07,138.41,23.36,222.47,23.36s163.06-8.29,222.46-23.36c57.94-14.68,91.17-34.72,91.17-55,0-21.44-35-48.08-91.32-69.52-64-24.39-143-33.44-222.31-33.44-148.91,0-210.2,17.38-263.39,39.17h0c53.42-21.88,114-46.68,263.39-46.68,79.63,0,158.92,13.5,223.27,38,57.52,21.9,93.25,49.67,93.25,72.47,0,22.14-33.17,42.74-93.4,58C1502.66,961,1423.42,975.93,1339.15,975.93Z" transform="translate(-217.79 -185.88)"/><path class="cls-15" d="M1850.88,1173.48s-2.78,27-5.82,32.08-16,21.41-21.53,24.61,3.37-21.48,2.25-26.29-4.55,8.77-7,9.09-1.81-11.9-1.9-16.34,11.84-15.42,16-24.88S1850.88,1173.48,1850.88,1173.48Z" transform="translate(-217.79 -185.88)"/><path class="cls-15" d="M1519.44,924.67l-6.2-11.7s3.08-20.85-23-34c0,0-9.55-3.89-14.94,3.9-5,7.17,9.46,5.87,8.69,18.14s5,19.47,13.15,23.46l6.7,7.77Z" transform="translate(-217.79 -185.88)"/><path class="cls-16" d="M1766.28,896.7s-22.43,110.09-145.86,146.07c-38.54,11.23-126.07-115.63-126.07-115.63s3.07-11.7,22.35-9c0,0,85.24,56.43,96,62.56,9.52,5.44,72.14-69.92,100.68-82.08S1766.28,896.7,1766.28,896.7Z" transform="translate(-217.79 -185.88)"/><rect class="cls-14" x="1481.86" y="837.26" width="23.06" height="115.97" transform="translate(164.01 2049.54) rotate(-81.27)"/><polygon class="cls-15" points="1191.63 696.47 1216.53 711.95 1220.03 689.17 1191.63 696.47"/><path class="cls-15" d="M1564.62,902.26l-1.11,7.21a8.12,8.12,0,0,1-9.26,6.79l-5.3-.81,3.5-22.79,5.77.88A7.66,7.66,0,0,1,1564.62,902.26Z" transform="translate(-217.79 -185.88)"/><path class="cls-17" d="M1913.65,1588.79s15.31,14,12.33,23.9-16.81,16.55-18.68,28.68-9.33,18.76-16.06,18.76h-32s-5-8.54,7-11.11,16.46-16.84,15.72-30.08,1.12-30.89,1.12-30.89l25.39-5.88Z" transform="translate(-217.79 -185.88)"/><path class="cls-17" d="M1725.79,1624.93s2.74,31.8-4,35.11l-86-.17s0-9.93,13.81-12.14,38.1-10.3,42.21-28.32S1725.79,1624.93,1725.79,1624.93Z" transform="translate(-217.79 -185.88)"/><path class="cls-18" d="M1653.15,1175.67s4.54,55.75,9.87,122.76c7.25,91,16,202.85,16.83,224,1.49,36.79,7.47,95.63,7.47,95.63s14.19,14,42.58,8.08c0,0,25.3-84,32.53-172.86.11-1.45.22-2.92.33-4.39,6.73-90.47,17.18-281,17.18-281Z" transform="translate(-217.79 -185.88)"/><path class="cls-17" d="M1653.15,1175.67s4.54,55.75,9.87,122.76l99.41,154.88c.11-1.45.22-2.92.33-4.39,6.73-90.47,17.18-281,17.18-281Z" transform="translate(-217.79 -185.88)"/><path class="cls-18" d="M1673.87,1182.29s81.8,201.9,135.58,296.78S1880,1600.43,1880,1600.43s30.81-12.13,33.61-20.41c0,0-20.57-183.17-56.58-227.82-20.35-25.23-44.26-101-45.38-127.43s-7.28-78.89-7.28-78.89Z" transform="translate(-217.79 -185.88)"/><path class="cls-15" d="M1781.49,871.15s-55.34,26.7-87.25,16.8a75.16,75.16,0,0,1,21.6-17.28c-1.11-6.41-2-12-2.46-16.68a153.87,153.87,0,0,1-1.35-17l21.35-16.8,20.25-16.07C1752,849.28,1781.49,871.15,1781.49,871.15Z" transform="translate(-217.79 -185.88)"/><path class="cls-19" d="M1810.65,1156.23c.13,3.38-7.11,7.25-10.3,8.7-23.69,10.39-45.78,17.64-70.81,20-29.57,3-64.55-3.62-76.57-3.38a5,5,0,0,1-3.31-1.33c-.86-.6-1.48-36.25-.86-81.07,0-1.82,0-3.63.12-5.44v-.61c.25-17.52.86-35.88,1.72-54.25,1.72-40.36,4.9-79.26,10.3-100.77,6.51-25.37,21.23-42.17,34.61-54.37l11-9.67c11.05,2.18,22.7,1.57,34.36-4.11,12.76-6.16,26.51-12.81,28.72-11.11,16.69,12.2,28,39.63,34,74.67a389.34,389.34,0,0,1,5,66.45c0,8.7-.25,17.65-.74,26.47-2.94,47.84,0,89.41,1.72,113.45C1810.16,1146.92,1810.53,1152.36,1810.65,1156.23Z" transform="translate(-217.79 -185.88)"/><path class="cls-16" d="M1809.67,1154c-193.79-.39-35.74-210.29-35.74-210.29l31.4-10.2a610.57,610.57,0,0,1,3.63,71c0,9.29-.17,18.85-.53,28.27C1806.3,1083.93,1808.43,1128.34,1809.67,1154Z" transform="translate(-217.79 -185.88)"/><path class="cls-20" d="M1754,821.37s-14,25.49-40.62,32.62a153.87,153.87,0,0,1-1.35-17l21.35-16.8Z" transform="translate(-217.79 -185.88)"/><path class="cls-15" d="M1702.3,836.22s52.79,8.64,57.75-23.82,15.11-53.2-18.39-60.09-42,4.53-46.29,15S1688.69,833.14,1702.3,836.22Z" transform="translate(-217.79 -185.88)"/><path class="cls-21" d="M1779.24,748.43c.48-.55,1.58-1,4-1.13a10,10,0,0,0-4.59-1.3c-.52-3.42-2.34-9.47-8.23-10.94a7.35,7.35,0,0,1,3.58,5.32c-6.82-7-21.43-12.1-61.89-8.91-53.32,4.21-35.75,38.35-28.85,42.42s24.28-7.08,37.15-6.06,15.3,19.6,19.67,22.15,2.64-2,8.55-4.62,6.46,7.11,4.76,13.47,6.4,14.75,6.4,14.75l8.2-8.83c8.2-8.83,15.93-46.22,12.2-54.19Z" transform="translate(-217.79 -185.88)"/><path class="cls-19" d="M1769.64,858.6s33.41,15.82,49.42,40.13c24.85,37.72,53.65,175.2,54.18,187.93s-21,102.6-21,102.6-21.86-1.44-27.5-12.47c0,0,4.37-92.34,1.6-98.28s-91.12-123.87-81.18-149S1769.64,858.6,1769.64,858.6Z" transform="translate(-217.79 -185.88)"/><path class="cls-15" d="M1513.13,912.41s1.81-7.17-3.17-10.4-9.55-12-11.65-10.8c-4.35,2.46,2.38,10.11,1.15,19.66C1499,914.21,1506.81,923,1513.13,912.41Z" transform="translate(-217.79 -185.88)"/><path class="cls-1" d="M701.44,1591.94S623,1391,568,1423,701.44,1591.94,701.44,1591.94Z" transform="translate(-217.79 -185.88)"/><path class="cls-1" d="M662.65,1591.94s-103.66-89.58-151-73S662.65,1591.94,662.65,1591.94Z" transform="translate(-217.79 -185.88)"/><path class="cls-1" d="M1760.22,1620.88s23.89-83.06,51.91-73.26S1760.22,1620.88,1760.22,1620.88Z" transform="translate(-217.79 -185.88)"/><path class="cls-1" d="M1782,1616.35s61-40,74.38-27.66S1782,1616.35,1782,1616.35Z" transform="translate(-217.79 -185.88)"/><path class="cls-13" d="M1573.63,1438.5H1098a5.8,5.8,0,0,1-5.79-5.79h0a5.8,5.8,0,0,1,5.79-5.78h475.67a5.8,5.8,0,0,1,5.79,5.78h0A5.81,5.81,0,0,1,1573.63,1438.5Z" transform="translate(-217.79 -185.88)"/><path class="cls-13" d="M1573.63,1461.67H1098a5.8,5.8,0,0,1-5.79-5.79h0a5.8,5.8,0,0,1,5.79-5.78h475.67a5.8,5.8,0,0,1,5.79,5.78h0A5.81,5.81,0,0,1,1573.63,1461.67Z" transform="translate(-217.79 -185.88)"/><path class="cls-13" d="M1573.63,1487.35H1098a5.8,5.8,0,0,1-5.79-5.79h0a5.81,5.81,0,0,1,5.79-5.79h475.67a5.81,5.81,0,0,1,5.79,5.79h0A5.81,5.81,0,0,1,1573.63,1487.35Z" transform="translate(-217.79 -185.88)"/><rect class="cls-13" x="874.37" y="1315.56" width="424.42" height="11.58" rx="5.4"/><path class="cls-22" d="M220.09,1664.16a2.31,2.31,0,0,1-2.3-2.3v-.43a2.31,2.31,0,0,1,2.3-2.3" transform="translate(-217.79 -185.88)"/><path class="cls-22" d="M2579,1659.13a2.31,2.31,0,0,1,2.3,2.3v.43a2.3,2.3,0,0,1-2.3,2.3" transform="translate(-217.79 -185.88)"/></svg>